<svg width="40" height="48" viewBox="0 0 40 48" fill="none" xmlns="http://www.w3.org/2000/svg">
<g clip-path="url(#clip0_201_2990)">
<path fill-rule="evenodd" clip-rule="evenodd" d="M13.5 24C13.5 22.2761 14.1848 20.6228 15.4038 19.4038C16.6228 18.1848 18.2761 17.5 20 17.5C21.7239 17.5 23.3772 18.1848 24.5962 19.4038C25.8152 20.6228 26.5 22.2761 26.5 24C26.5 25.7239 25.8152 27.3772 24.5962 28.5962C23.3772 29.8152 21.7239 30.5 20 30.5C18.2761 30.5 16.6228 29.8152 15.4038 28.5962C14.1848 27.3772 13.5 25.7239 13.5 24ZM20 16C17.8783 16 15.8434 16.8429 14.3431 18.3431C12.8429 19.8434 12 21.8783 12 24C12 26.1217 12.8429 28.1566 14.3431 29.6569C15.8434 31.1571 17.8783 32 20 32C22.1217 32 24.1566 31.1571 25.6569 29.6569C27.1571 28.1566 28 26.1217 28 24C28 21.8783 27.1571 19.8434 25.6569 18.3431C24.1566 16.8429 22.1217 16 20 16ZM17 24C17.2652 24 17.5196 23.8946 17.7071 23.7071C17.8946 23.5196 18 23.2652 18 23C18 22.7348 17.8946 22.4804 17.7071 22.2929C17.5196 22.1054 17.2652 22 17 22C16.7348 22 16.4804 22.1054 16.2929 22.2929C16.1054 22.4804 16 22.7348 16 23C16 23.2652 16.1054 23.5196 16.2929 23.7071C16.4804 23.8946 16.7348 24 17 24ZM24 23C24 23.2652 23.8946 23.5196 23.7071 23.7071C23.5196 23.8946 23.2652 24 23 24C22.7348 24 22.4804 23.8946 22.2929 23.7071C22.1054 23.5196 22 23.2652 22 23C22 22.7348 22.1054 22.4804 22.2929 22.2929C22.4804 22.1054 22.7348 22 23 22C23.2652 22 23.5196 22.1054 23.7071 22.2929C23.8946 22.4804 24 22.7348 24 23ZM17.32 25.636C17.4813 25.523 17.6806 25.4781 17.8749 25.5108C18.0691 25.5435 18.2426 25.6514 18.358 25.811L18.365 25.82C18.4678 25.9379 18.5855 26.0421 18.715 26.13C18.979 26.308 19.398 26.5 20 26.5C20.602 26.5 21.02 26.308 21.285 26.129C21.4145 26.0411 21.5322 25.937 21.635 25.819L21.642 25.811C21.7574 25.6489 21.9324 25.5394 22.1285 25.5064C22.3247 25.4734 22.526 25.5196 22.688 25.635C22.85 25.7504 22.9596 25.9254 22.9926 26.1215C23.0256 26.3177 22.9794 26.519 22.864 26.681L22.25 26.25C22.864 26.68 22.864 26.681 22.863 26.681V26.682L22.862 26.684L22.86 26.687L22.855 26.694L22.841 26.713C22.7848 26.7883 22.7233 26.8594 22.657 26.926C22.4963 27.0924 22.3187 27.2415 22.127 27.371C21.4972 27.7894 20.7561 28.0086 20 28C19.054 28 18.348 27.692 17.874 27.37C17.6232 27.2003 17.3968 26.9971 17.201 26.766C17.1867 26.7486 17.1727 26.7309 17.159 26.713L17.145 26.693L17.14 26.687L17.138 26.684V26.682H17.137L17.75 26.25L17.136 26.68C17.022 26.5172 16.9772 26.3159 17.0115 26.1201C17.0458 25.9244 17.1564 25.7503 17.319 25.636H17.32Z" fill="#2C2C2E"/>
</g>
<defs>
<clipPath id="clip0_201_2990">
<rect width="16" height="16" fill="white" transform="translate(12 16)"/>
</clipPath>
</defs>
</svg>
