<svg width="16" height="16" viewBox="0 0 16 16" fill="none" xmlns="http://www.w3.org/2000/svg">
<path d="M7.9965 2.00001C7.81078 1.9991 7.62477 2.07512 7.49117 2.22802L2.83115 7.56135C2.58889 7.83861 2.61727 8.25977 2.89453 8.50203C3.17179 8.74429 3.59295 8.71591 3.83521 8.43865L7.33318 4.43526V13.3333C7.33318 13.7015 7.63166 14 7.99985 14C8.36804 14 8.66651 13.7015 8.66651 13.3333V4.44665L12.1651 8.43936C12.4078 8.71628 12.8289 8.74406 13.1059 8.50141C13.3828 8.25876 13.4106 7.83756 13.1679 7.56064L8.55155 2.2923C8.43161 2.11588 8.22926 2 7.99985 2L7.9965 2.00001Z" fill="#3DD598"/>
</svg>
