<svg width="16" height="16" viewBox="0 0 16 16" fill="none" xmlns="http://www.w3.org/2000/svg">
<path d="M7.9965 14C7.81078 14.0009 7.62477 13.9249 7.49117 13.772L2.83115 8.43865C2.58889 8.16139 2.61727 7.74023 2.89453 7.49797C3.17179 7.25571 3.59295 7.28409 3.83521 7.56135L7.33318 11.5647V2.66667C7.33318 2.29848 7.63166 2 7.99985 2C8.36804 2 8.66651 2.29848 8.66651 2.66667V11.5533L12.1651 7.56064C12.4078 7.28372 12.8289 7.25594 13.1059 7.49859C13.3828 7.74124 13.4106 8.16244 13.1679 8.43936L8.55155 13.7077C8.43161 13.8841 8.22926 14 7.99985 14L7.9965 14Z" fill="#FC5A5A"/>
</svg>
