<svg width="25" height="26" viewBox="0 0 25 26" fill="none" xmlns="http://www.w3.org/2000/svg">
<path d="M11.7707 2.85419L5.52067 5.19794C4.70817 5.51044 4.1665 6.28128 4.1665 7.15628V12.0625C4.1665 17.3229 7.71859 22.2292 12.4998 23.4271C17.2811 22.2292 20.8332 17.3229 20.8332 12.0625V7.15628C20.8324 6.73238 20.7024 6.3188 20.4604 5.97074C20.2185 5.62269 19.8761 5.35672 19.479 5.20836L13.229 2.86461C12.7603 2.67711 12.2394 2.67711 11.7707 2.85419ZM10.6561 15.9479L8.44775 13.7396C8.35131 13.6432 8.27481 13.5287 8.22262 13.4027C8.17043 13.2767 8.14357 13.1416 8.14357 13.0052C8.14357 12.8688 8.17043 12.7338 8.22262 12.6078C8.27481 12.4818 8.35131 12.3673 8.44775 12.2709C8.54419 12.1744 8.65868 12.0979 8.78469 12.0457C8.91069 11.9935 9.04574 11.9667 9.18213 11.9667C9.31851 11.9667 9.45357 11.9935 9.57957 12.0457C9.70557 12.0979 9.82006 12.1744 9.9165 12.2709L11.3853 13.7396L15.0728 10.0521C15.1692 9.95567 15.2837 9.87917 15.4097 9.82698C15.5357 9.77479 15.6707 9.74792 15.8071 9.74792C15.9435 9.74792 16.0786 9.77479 16.2046 9.82698C16.3306 9.87917 16.4451 9.95567 16.5415 10.0521C16.6379 10.1486 16.7144 10.263 16.7666 10.389C16.8188 10.515 16.8457 10.6501 16.8457 10.7865C16.8457 10.9229 16.8188 11.0579 16.7666 11.1839C16.7144 11.3099 16.6379 11.4244 16.5415 11.5209L12.1248 15.9375C11.729 16.3542 11.0623 16.3542 10.6561 15.9479Z" fill="#6941C6"/>
</svg>
