<svg width="24" height="24" viewBox="0 0 24 24" fill="none" xmlns="http://www.w3.org/2000/svg">
<path fill-rule="evenodd" clip-rule="evenodd" d="M18 6V18H6V6H18ZM11.0508 9H9.88209L7.66331 15H8.71767L9.13655 13.827H11.7926L12.2025 15H13.3203L11.0508 9ZM15.1919 9H14.1418V15H15.1919V9ZM10.4575 10.0066L11.5035 13H9.4282L10.4575 10.0066ZM19.0001 15H21V17H19L19.0001 15ZM7.00008 19H9V21H6.99998L7.00008 19ZM11.0001 19H13V21H11.0001V19ZM6.99998 3H9V5.00002H6.99998V3ZM15 19H17V21H15V19ZM11 3H13V5.00002H11V3ZM15 3H17V5.00002H15V3ZM19 11H21V13H19V11ZM3 15H5.00002V17H3V15ZM19 6.99998H21V9H19V6.99998ZM3 11H5.00002V13H3V11ZM3 6.99998H5.00002V9H3V6.99998Z" fill="#6941C6"/>
</svg>
