<svg width="26" height="26" viewBox="0 0 26 26" fill="none" xmlns="http://www.w3.org/2000/svg">
<path fill-rule="evenodd" clip-rule="evenodd" d="M18.9582 14.0833C21.6506 14.0833 23.8332 16.2659 23.8332 18.9583C23.8332 21.6507 21.6506 23.8333 18.9582 23.8333C16.2658 23.8333 14.0832 21.6507 14.0832 18.9583C14.0832 16.2659 16.2658 14.0833 18.9582 14.0833ZM17.3332 16.25V21.6667L22.2082 18.9583L17.3332 16.25ZM13.2241 17.3333C13.0748 17.8621 12.9994 18.4089 12.9998 18.9583C12.9998 19.1409 13.008 19.3217 13.0241 19.5001L2.1665 19.5V17.3333H13.2241ZM6.49982 8.66668V16.25H3.24982V8.66668H6.49982ZM11.9165 11.9167V16.25H8.6665V11.9167H11.9165ZM17.3332 10.8333L17.3331 13.2243C16.0018 13.6008 14.8599 14.4286 14.083 15.5318L14.0832 10.8333H17.3332ZM22.7498 11.9167L22.7499 14.362C21.8503 13.6191 20.7289 13.1351 19.4999 13.0243L19.4998 11.9167H22.7498ZM15.7082 3.25C16.6056 3.25 17.3332 3.97754 17.3332 4.875C17.3332 4.89714 17.3327 4.91915 17.3319 4.94102L19.9035 5.96969C20.2014 5.63068 20.6381 5.41668 21.1248 5.41668C22.0223 5.41668 22.7498 6.14423 22.7498 7.04168C22.7498 7.93914 22.0223 8.66668 21.1248 8.66668C20.2274 8.66668 19.4998 7.93914 19.4998 7.04168C19.4999 7.01954 19.5003 6.9975 19.5011 6.97557L16.9296 5.94689C16.6317 6.28596 16.1949 6.5 15.7081 6.5C15.33 6.50057 14.9637 6.36873 14.6726 6.12737L11.8841 7.80086C11.9053 7.90563 11.9165 8.01399 11.9165 8.125C11.9165 9.02246 11.1889 9.75 10.2915 9.75C9.394 9.75 8.66645 9.02246 8.66645 8.125C8.66645 8.01409 8.67757 7.90573 8.69875 7.80102L5.90984 6.12777C5.61887 6.36888 5.2527 6.50056 4.87482 6.5C3.97736 6.5 3.24982 5.77246 3.24982 4.875C3.24982 3.97754 3.97736 3.25 4.87482 3.25C5.77228 3.25 6.49982 3.97754 6.49982 4.875C6.49982 4.98596 6.4887 5.09427 6.46752 5.19898L9.25633 6.87233C9.54733 6.63115 9.91356 6.49943 10.2915 6.5C10.6694 6.49943 11.0356 6.63113 11.3266 6.87228L14.1155 5.19903C14.0939 5.09238 14.0831 4.98382 14.0832 4.875C14.0832 3.97754 14.8107 3.25 15.7082 3.25Z" fill="#6941C6"/>
</svg>
