<svg width="24" height="24" viewBox="0 0 24 24" fill="none" xmlns="http://www.w3.org/2000/svg">
<path d="M22.078 8.34718C21.9401 8.20561 21.7738 8.09485 21.59 8.02218V4.64718C21.59 4.45702 21.5145 4.27464 21.38 4.14018C21.2455 4.00572 21.0632 3.93018 20.873 3.93018C20.6836 3.93276 20.5028 4.00913 20.3689 4.14304C20.235 4.27695 20.1586 4.45782 20.156 4.64718V7.85018H19.946C19.6099 6.71844 18.9173 5.72549 17.9714 5.01916C17.0254 4.31283 15.8766 3.93088 14.696 3.93018H9.427C8.24642 3.93088 7.09762 4.31283 6.15164 5.01916C5.20566 5.72549 4.51308 6.71844 4.177 7.85018H3.9V4.64718C3.9 4.45702 3.82446 4.27464 3.69 4.14018C3.55553 4.00572 3.37316 3.93018 3.183 3.93018C2.99284 3.93018 2.81047 4.00572 2.67601 4.14018C2.54154 4.27464 2.466 4.45702 2.466 4.64718V8.03218C2.29113 8.10652 2.13197 8.21342 1.997 8.34718C1.67966 8.66808 1.50116 9.10086 1.5 9.55218V14.4482C1.49974 14.6718 1.54358 14.8932 1.62902 15.0998C1.71446 15.3064 1.83982 15.4942 1.99792 15.6523C2.15602 15.8104 2.34375 15.9357 2.55036 16.0212C2.75698 16.1066 2.97842 16.1504 3.202 16.1502H4.158C4.49408 17.2819 5.18666 18.2749 6.13264 18.9812C7.07862 19.6875 8.22742 20.0695 9.408 20.0702H14.591C15.7716 20.0695 16.9204 19.6875 17.8664 18.9812C18.8123 18.2749 19.5049 17.2819 19.841 16.1502H20.796C21.0196 16.1504 21.241 16.1066 21.4476 16.0212C21.6543 15.9357 21.842 15.8104 22.0001 15.6523C22.1582 15.4942 22.2835 15.3064 22.369 15.0998C22.4544 14.8932 22.4983 14.6718 22.498 14.4482V9.55218C22.518 9.11218 22.367 8.68018 22.078 8.34718ZM3.996 14.7162H3.24C3.16866 14.7168 3.09999 14.6891 3.049 14.6392C3.00197 14.5864 2.97505 14.5188 2.973 14.4482V9.55218C2.97083 9.48388 2.99563 9.41747 3.04204 9.36732C3.08845 9.31716 3.15274 9.2873 3.221 9.28418H3.996C3.99165 9.32573 3.99165 9.36762 3.996 9.40918V14.5912C3.99165 14.6327 3.99165 14.6746 3.996 14.7162ZM8.299 11.4842V8.90218C8.28634 8.78852 8.29779 8.67347 8.33262 8.56454C8.36745 8.45561 8.42487 8.35526 8.50113 8.27003C8.57739 8.18481 8.67076 8.11663 8.77517 8.06995C8.87957 8.02327 8.99264 7.99915 9.107 7.99915C9.22136 7.99915 9.33444 8.02327 9.43884 8.06995C9.54324 8.11663 9.63662 8.18481 9.71287 8.27003C9.78913 8.35526 9.84655 8.45561 9.88138 8.56454C9.91621 8.67347 9.92766 8.78852 9.915 8.90218V11.4842C9.92766 11.5978 9.91621 11.7129 9.88138 11.8218C9.84655 11.9307 9.78913 12.0311 9.71287 12.1163C9.63662 12.2015 9.54324 12.2697 9.43884 12.3164C9.33444 12.3631 9.22136 12.3872 9.107 12.3872C8.99264 12.3872 8.87957 12.3631 8.77517 12.3164C8.67076 12.2697 8.57739 12.2015 8.50113 12.1163C8.42487 12.0311 8.36745 11.9307 8.33262 11.8218C8.29779 11.7129 8.28634 11.5978 8.299 11.4842ZM14.036 16.2642H10.116C9.90051 16.2642 9.69385 16.1786 9.54148 16.0262C9.3891 15.8738 9.3035 15.6672 9.3035 15.4517C9.3035 15.2362 9.3891 15.0295 9.54148 14.8772C9.69385 14.7248 9.90051 14.6392 10.116 14.6392H14.036C14.2516 14.6392 14.4584 14.7248 14.6109 14.8773C14.7633 15.0298 14.849 15.2366 14.849 15.4522C14.849 15.6678 14.7633 15.8746 14.6109 16.0271C14.4584 16.1795 14.2516 16.2642 14.036 16.2642ZM15.824 11.4852C15.824 11.7008 15.7383 11.9076 15.5859 12.0601C15.4334 12.2125 15.2266 12.2982 15.011 12.2982C14.7954 12.2982 14.5886 12.2125 14.4361 12.0601C14.2837 11.9076 14.198 11.7008 14.198 11.4852V8.90218C14.198 8.68655 14.2837 8.47976 14.4361 8.3273C14.5886 8.17483 14.7954 8.08918 15.011 8.08918C15.2266 8.08918 15.4334 8.17483 15.5859 8.3273C15.7383 8.47976 15.824 8.68655 15.824 8.90218V11.4852ZM21.169 14.4492C21.169 14.5192 21.141 14.5892 21.093 14.6402C21.0676 14.665 21.0376 14.6846 21.0047 14.6978C20.9717 14.711 20.9365 14.7176 20.901 14.7172H20.146C20.1504 14.6756 20.1504 14.6337 20.146 14.5922V9.37218C20.1504 9.33062 20.1504 9.28873 20.146 9.24718H20.911C20.945 9.24697 20.9786 9.25369 21.0099 9.26693C21.0412 9.28017 21.0695 9.29965 21.093 9.32418C21.141 9.37618 21.168 9.44418 21.169 9.51418V14.4492Z" fill="white"/>
</svg>
