<svg width="24" height="25" viewBox="0 0 24 25" fill="none" xmlns="http://www.w3.org/2000/svg">
<path fill-rule="evenodd" clip-rule="evenodd" d="M3 6.5C3 5.70435 3.31607 4.94129 3.87868 4.37868C4.44129 3.81607 5.20435 3.5 6 3.5H18C18.7956 3.5 19.5587 3.81607 20.1213 4.37868C20.6839 4.94129 21 5.70435 21 6.5V18.5C21 19.2956 20.6839 20.0587 20.1213 20.6213C19.5587 21.1839 18.7956 21.5 18 21.5H6C5.20435 21.5 4.44129 21.1839 3.87868 20.6213C3.31607 20.0587 3 19.2956 3 18.5V6.5ZM13 8.5C13 8.23478 12.8946 7.98043 12.7071 7.79289C12.5196 7.60536 12.2652 7.5 12 7.5C11.7348 7.5 11.4804 7.60536 11.2929 7.79289C11.1054 7.98043 11 8.23478 11 8.5V16.5C11 16.7652 11.1054 17.0196 11.2929 17.2071C11.4804 17.3946 11.7348 17.5 12 17.5C12.2652 17.5 12.5196 17.3946 12.7071 17.2071C12.8946 17.0196 13 16.7652 13 16.5V8.5ZM9 11.5C9 11.2348 8.89464 10.9804 8.70711 10.7929C8.51957 10.6054 8.26522 10.5 8 10.5C7.73478 10.5 7.48043 10.6054 7.29289 10.7929C7.10536 10.9804 7 11.2348 7 11.5V16.5C7 16.7652 7.10536 17.0196 7.29289 17.2071C7.48043 17.3946 7.73478 17.5 8 17.5C8.26522 17.5 8.51957 17.3946 8.70711 17.2071C8.89464 17.0196 9 16.7652 9 16.5V11.5ZM17 14.5C17 14.2348 16.8946 13.9804 16.7071 13.7929C16.5196 13.6054 16.2652 13.5 16 13.5C15.7348 13.5 15.4804 13.6054 15.2929 13.7929C15.1054 13.9804 15 14.2348 15 14.5V16.5C15 16.7652 15.1054 17.0196 15.2929 17.2071C15.4804 17.3946 15.7348 17.5 16 17.5C16.2652 17.5 16.5196 17.3946 16.7071 17.2071C16.8946 17.0196 17 16.7652 17 16.5V14.5Z" fill="#6941C6"/>
</svg>
