<svg width="30" height="30" viewBox="0 0 30 30" fill="none" xmlns="http://www.w3.org/2000/svg">
<path d="M4.26514 23.0164V11.7664C4.26514 11.3705 4.35389 10.9955 4.53139 10.6414C4.70889 10.2872 4.95347 9.99552 5.26514 9.76636L12.7651 4.14136C13.2026 3.80802 13.7026 3.64136 14.2651 3.64136C14.8276 3.64136 15.3276 3.80802 15.7651 4.14136L23.2651 9.76636C23.5776 9.99552 23.8226 10.2872 24.0001 10.6414C24.1776 10.9955 24.266 11.3705 24.2651 11.7664V23.0164C24.2651 23.7039 24.0201 24.2926 23.5301 24.7826C23.0401 25.2726 22.4518 25.5172 21.7651 25.5164H18.0151C17.661 25.5164 17.3643 25.3964 17.1251 25.1564C16.886 24.9164 16.766 24.6197 16.7651 24.2664V18.0164C16.7651 17.6622 16.6451 17.3655 16.4051 17.1264C16.1651 16.8872 15.8685 16.7672 15.5151 16.7664H13.0151C12.661 16.7664 12.3643 16.8864 12.1251 17.1264C11.886 17.3664 11.766 17.663 11.7651 18.0164V24.2664C11.7651 24.6205 11.6451 24.9176 11.4051 25.1576C11.1651 25.3976 10.8685 25.5172 10.5151 25.5164H6.76514C6.07764 25.5164 5.4893 25.2718 5.00014 24.7826C4.51097 24.2934 4.26597 23.7047 4.26514 23.0164Z" fill="#6941C6"/>
</svg>
