<svg width="24" height="25" viewBox="0 0 24 25" fill="none" xmlns="http://www.w3.org/2000/svg">
<path d="M9.2502 22.5L8.8502 19.3C8.63353 19.2167 8.42953 19.1167 8.2382 19C8.04686 18.8833 7.8592 18.7583 7.6752 18.625L4.7002 19.875L1.9502 15.125L4.5252 13.175C4.50853 13.0583 4.5002 12.946 4.5002 12.838V12.163C4.5002 12.0543 4.50853 11.9417 4.5252 11.825L1.9502 9.875L4.7002 5.125L7.6752 6.375C7.85853 6.24167 8.0502 6.11667 8.2502 6C8.4502 5.88333 8.6502 5.78333 8.8502 5.7L9.2502 2.5H14.7502L15.1502 5.7C15.3669 5.78333 15.5712 5.88333 15.7632 6C15.9552 6.11667 16.1425 6.24167 16.3252 6.375L19.3002 5.125L22.0502 9.875L19.4752 11.825C19.4919 11.9417 19.5002 12.0543 19.5002 12.163V12.837C19.5002 12.9457 19.4835 13.0583 19.4502 13.175L22.0252 15.125L19.2752 19.875L16.3252 18.625C16.1419 18.7583 15.9502 18.8833 15.7502 19C15.5502 19.1167 15.3502 19.2167 15.1502 19.3L14.7502 22.5H9.2502ZM12.0502 16C13.0169 16 13.8419 15.6583 14.5252 14.975C15.2085 14.2917 15.5502 13.4667 15.5502 12.5C15.5502 11.5333 15.2085 10.7083 14.5252 10.025C13.8419 9.34167 13.0169 9 12.0502 9C11.0669 9 10.2375 9.34167 9.5622 10.025C8.88686 10.7083 8.54953 11.5333 8.5502 12.5C8.55086 13.4667 8.88853 14.2917 9.5632 14.975C10.2379 15.6583 11.0669 16 12.0502 16Z" fill="#6941C6"/>
</svg>
