<svg width="25" height="26" viewBox="0 0 25 26" fill="none" xmlns="http://www.w3.org/2000/svg">
<path d="M4.16683 21.3335H16.6668V23.4168H4.16683C3.021 23.4168 2.0835 22.4793 2.0835 21.3335V7.79183H4.16683M22.9168 4.66683V17.1668C22.9168 18.3127 21.9793 19.2502 20.8335 19.2502H8.3335C7.18766 19.2502 6.25016 18.3127 6.25016 17.1668V4.66683C6.25016 3.521 7.18766 2.5835 8.3335 2.5835H20.8335C21.9793 2.5835 22.9168 3.521 22.9168 4.66683ZM12.5002 8.8335H10.4168V15.0835H12.5002M15.6252 6.75016H13.5418V15.0835H15.6252M18.7502 11.9585H16.6668V15.0835H18.7502V11.9585Z" fill="#6941C6"/>
</svg>
