<svg width="30" height="30" viewBox="0 0 30 30" fill="none" xmlns="http://www.w3.org/2000/svg">
<g clip-path="url(#clip0_231_563)">
<path fill-rule="evenodd" clip-rule="evenodd" d="M14.9721 3.2142C14.0764 3.19803 13.1862 3.35866 12.3525 3.68691C11.5189 4.01515 10.7582 4.50457 10.1139 5.12715C9.46961 5.74973 8.95443 6.49326 8.59783 7.31517C8.24124 8.13708 8.05022 9.02124 8.03571 9.91706V19.2856C8.03571 19.854 7.80995 20.399 7.40809 20.8009C7.00622 21.2027 6.46118 21.4285 5.89286 21.4285H3.21429C2.3618 21.4285 1.54424 21.0898 0.941442 20.487C0.338647 19.8843 0 19.0667 0 18.2142L0 13.9285C0 13.076 0.338647 12.2584 0.941442 11.6556C1.54424 11.0528 2.3618 10.7142 3.21429 10.7142H4.82143V9.87849C4.84098 8.56147 5.11978 7.26121 5.64191 6.05196C6.16404 4.84271 6.91927 3.74816 7.86447 2.83082C8.80967 1.91348 9.92632 1.19132 11.1506 0.705592C12.375 0.219861 13.683 -0.0199284 15 -8.21736e-05C16.317 -0.0199284 17.625 0.219861 18.8494 0.705592C20.0737 1.19132 21.1903 1.91348 22.1355 2.83082C23.0807 3.74816 23.836 4.84271 24.3581 6.05196C24.8802 7.26121 25.159 8.56147 25.1786 9.87849V10.7142H26.7857C27.6382 10.7142 28.4558 11.0528 29.0586 11.6556C29.6614 12.2584 30 13.076 30 13.9285V18.2142C30 19.0667 29.6614 19.8843 29.0586 20.487C28.4558 21.0898 27.6382 21.4285 26.7857 21.4285H25.1786V22.4999C25.1788 23.948 24.6459 25.3454 23.6816 26.4256C22.7172 27.5058 21.3888 28.1931 19.95 28.3563C19.6706 28.8552 19.2631 29.2705 18.7697 29.5595C18.2762 29.8484 17.7147 30.0004 17.1429 29.9999H13.9286C13.0761 29.9999 12.2585 29.6613 11.6557 29.0585C11.0529 28.4557 10.7143 27.6381 10.7143 26.7856C10.7143 25.9331 11.0529 25.1156 11.6557 24.5128C12.2585 23.91 13.0761 23.5713 13.9286 23.5713H17.1429C18.3043 23.5713 19.3221 24.1863 19.8857 25.1099C20.4763 24.9742 21.0035 24.6421 21.381 24.1681C21.7586 23.694 21.9642 23.1059 21.9643 22.4999V9.91492C21.9496 9.01449 21.7566 8.1259 21.3963 7.30053C21.0361 6.47516 20.5159 5.72937 19.8657 5.10628C19.2155 4.48319 18.4483 3.99515 17.6083 3.67039C16.7684 3.34563 15.8724 3.19058 14.9721 3.2142Z" fill="#6941C6"/>
</g>
<defs>
<clipPath id="clip0_231_563">
<rect width="30" height="30" fill="white"/>
</clipPath>
</defs>
</svg>
